<svg xmlns="http://www.w3.org/2000/svg" viewBox="0 0 200 200" width="200" height="200">
  <!-- 0CB8=0: ;CG8 8 4C38, E>@>H> 2848<K5 =0 BQ<=>< D>=5 -->
  <g stroke="rgba(255,255,255,0.7)" stroke-width="1.2" fill="none">
    <line x1="100" y1="100" x2="100" y2="0"/>
    <line x1="100" y1="100" x2="148" y2="0"/>
    <line x1="100" y1="100" x2="200" y2="50"/>
    <line x1="100" y1="100" x2="200" y2="100"/>
    <line x1="100" y1="100" x2="200" y2="150"/>
    <line x1="100" y1="100" x2="148" y2="200"/>
    <line x1="100" y1="100" x2="100" y2="200"/>
    <line x1="100" y1="100" x2="52" y2="200"/>
    <line x1="100" y1="100" x2="0" y2="150"/>
    <line x1="100" y1="100" x2="0" y2="100"/>
    <line x1="100" y1="100" x2="0" y2="50"/>
    <line x1="100" y1="100" x2="52" y2="0"/>
  </g>
  <g stroke="rgba(255,255,255,0.55)" stroke-width="1" fill="none">
    <path d="M100 70 A30 30 0 0 1 130 100 A30 30 0 0 1 100 130 A30 30 0 0 1 70 100 A30 30 0 0 1 100 70"/>
    <path d="M100 50 A50 50 0 0 1 150 100 A50 50 0 0 1 100 150 A50 50 0 0 1 50 100 A50 50 0 0 1 100 50"/>
    <path d="M100 30 A70 70 0 0 1 170 100 A70 70 0 0 1 100 170 A70 70 0 0 1 30 100 A70 70 0 0 1 100 30"/>
  </g>
</svg>
