<svg xmlns="http://www.w3.org/2000/svg" viewBox="0 0 400 400">
  <defs>
    <!-- 0CB8=0: F5=B@ + ;CG8 + 4C38 -->
    <pattern id="web-tile" x="0" y="0" width="400" height="400" patternUnits="userSpaceOnUse">
      <!-- CG8 87 F5=B@0 (<=>3>) -->
      <g stroke="rgba(255,255,255,0.6)" stroke-width="0.9" fill="none">
        <line x1="200" y1="200" x2="200" y2="0"/>
        <line x1="200" y1="200" x2="234" y2="0"/>
        <line x1="200" y1="200" x2="268" y2="0"/>
        <line x1="200" y1="200" x2="300" y2="0"/>
        <line x1="200" y1="200" x2="334" y2="20"/>
        <line x1="200" y1="200" x2="366" y2="50"/>
        <line x1="200" y1="200" x2="390" y2="100"/>
        <line x1="200" y1="200" x2="400" y2="200"/>
        <line x1="200" y1="200" x2="390" y2="300"/>
        <line x1="200" y1="200" x2="366" y2="350"/>
        <line x1="200" y1="200" x2="334" y2="380"/>
        <line x1="200" y1="200" x2="300" y2="400"/>
        <line x1="200" y1="200" x2="268" y2="400"/>
        <line x1="200" y1="200" x2="234" y2="400"/>
        <line x1="200" y1="200" x2="200" y2="400"/>
        <line x1="200" y1="200" x2="166" y2="400"/>
        <line x1="200" y1="200" x2="132" y2="400"/>
        <line x1="200" y1="200" x2="100" y2="400"/>
        <line x1="200" y1="200" x2="66" y2="380"/>
        <line x1="200" y1="200" x2="34" y2="350"/>
        <line x1="200" y1="200" x2="10" y2="300"/>
        <line x1="200" y1="200" x2="0" y2="200"/>
        <line x1="200" y1="200" x2="10" y2="100"/>
        <line x1="200" y1="200" x2="34" y2="50"/>
        <line x1="200" y1="200" x2="66" y2="20"/>
        <line x1="200" y1="200" x2="100" y2="0"/>
        <line x1="200" y1="200" x2="132" y2="0"/>
        <line x1="200" y1="200" x2="166" y2="0"/>
      </g>
      <!-- >=F5=B@8G5A:85 4C38 (:>;LF0 ?0CB8=K) -->
      <g stroke="rgba(255,255,255,0.5)" stroke-width="0.7" fill="none">
        <path d="M200 140 A60 60 0 0 1 260 200 A60 60 0 0 1 200 260 A60 60 0 0 1 140 200 A60 60 0 0 1 200 140"/>
        <path d="M200 100 A100 100 0 0 1 300 200 A100 100 0 0 1 200 300 A100 100 0 0 1 100 200 A100 100 0 0 1 200 100"/>
        <path d="M200 60 A140 140 0 0 1 340 200 A140 140 0 0 1 200 340 A140 140 0 0 1 60 200 A140 140 0 0 1 200 60"/>
        <path d="M200 20 A180 180 0 0 1 380 200 A180 180 0 0 1 200 380 A180 180 0 0 1 20 200 A180 180 0 0 1 200 20"/>
      </g>
      <!-- >?>;=8B5;L=K5 =8B8 <564C ;CG0<8 4;O ?;>B=>AB8 -->
      <g stroke="rgba(255,255,255,0.4)" stroke-width="0.6" fill="none">
        <path d="M200 200 L240 160 L280 120 L320 80"/>
        <path d="M200 200 L240 240 L280 280 L320 320"/>
        <path d="M200 200 L160 240 L120 280 L80 320"/>
        <path d="M200 200 L160 160 L120 120 L80 80"/>
        <path d="M200 200 L260 160 L320 120 L380 80"/>
        <path d="M200 200 L260 240 L320 280 L380 320"/>
        <path d="M200 200 L140 240 L80 280 L20 320"/>
        <path d="M200 200 L140 160 L80 120 L20 80"/>
      </g>
    </pattern>
    <!-- B>@>9 F5=B@ ?0CB8=K (A<5IQ==K9) 4;O ?;>B=>AB8 -->
    <pattern id="web-tile2" x="0" y="0" width="400" height="400" patternUnits="userSpaceOnUse">
      <g transform="translate(80, 80)">
        <g stroke="rgba(255,255,255,0.45)" stroke-width="0.7" fill="none">
          <line x1="120" y1="120" x2="120" y2="0"/><line x1="120" y1="120" x2="180" y2="0"/><line x1="120" y1="120" x2="240" y2="40"/><line x1="120" y1="120" x2="240" y2="120"/><line x1="120" y1="120" x2="240" y2="200"/><line x1="120" y1="120" x2="180" y2="240"/><line x1="120" y1="120" x2="120" y2="240"/><line x1="120" y1="120" x2="60" y2="240"/><line x1="120" y1="120" x2="0" y2="200"/><line x1="120" y1="120" x2="0" y2="120"/><line x1="120" y1="120" x2="0" y2="40"/><line x1="120" y1="120" x2="60" y2="0"/>
        </g>
        <path d="M120 80 A40 40 0 0 1 160 120 A40 40 0 0 1 120 160 A40 40 0 0 1 80 120 A40 40 0 0 1 120 80" stroke="rgba(255,255,255,0.42)" stroke-width="0.6" fill="none"/>
        <path d="M120 40 A80 80 0 0 1 200 120 A80 80 0 0 1 120 200 A80 80 0 0 1 40 120 A80 80 0 0 1 120 40" stroke="rgba(255,255,255,0.38)" stroke-width="0.55" fill="none"/>
      </g>
    </pattern>
  </defs>
  <rect width="400" height="400" fill="url(#web-tile)"/>
  <rect width="400" height="400" fill="url(#web-tile2)" opacity="0.7"/>
</svg>
